<svg width="71" height="63" viewBox="0 0 71 63" fill="none" xmlns="http://www.w3.org/2000/svg">
<g clip-path="url(#clip0)">
<path d="M68.0629 13.9707C65.2826 12.5459 61.7132 13.3949 60.1073 15.862L54.9404 23.8046V17.2266C54.9404 16.5473 54.3192 15.9961 53.5537 15.9961C52.7869 15.9961 52.167 16.5473 52.167 17.2266V28.0547V28.0658L36.9367 51.473C36.8396 51.6206 36.78 51.7855 36.7592 51.9565L35.7164 60.5391H2.7998V2.46094H52.167V6.15234C52.167 6.83156 52.7869 7.38281 53.5537 7.38281C54.3192 7.38281 54.9404 6.83156 54.9404 6.15234V1.23047C54.9404 0.55125 54.3192 0 53.5537 0H1.41309C0.64623 0 0.0263672 0.55125 0.0263672 1.23047V61.7695C0.0263672 62.4487 0.64623 63 1.41309 63H53.5537C54.3192 63 54.9404 62.4487 54.9404 61.7695V44.4753L70.1957 21.0299C71.8002 18.5629 70.8447 15.3956 68.0629 13.9707V13.9707ZM39.2885 54.0988L43.2864 56.1463L38.677 59.1339L39.2885 54.0988ZM52.167 60.5391H41.2119L46.6423 57.0187C46.7976 56.9178 46.928 56.7886 47.025 56.6409L52.167 48.7389V60.5391ZM45.3166 54.3449L40.0318 51.6379L60.3292 20.4442L65.6126 23.1513L45.3166 54.3449ZM67.7925 19.7995L66.9993 21.0201L61.7159 18.3131L62.5091 17.0924C63.3495 15.8004 65.2202 15.3563 66.6762 16.1019C68.1337 16.8488 68.6343 18.5075 67.7925 19.7995Z" fill="#B5913D"/>
<path d="M53.5537 10.459C53.1876 10.459 52.8312 10.5906 52.5733 10.8195C52.3154 11.0484 52.167 11.3658 52.167 11.6895C52.167 12.0143 52.3154 12.3305 52.5733 12.5594C52.8312 12.7883 53.189 12.9199 53.5537 12.9199C53.9184 12.9199 54.2762 12.7883 54.5341 12.5594C54.7921 12.3305 54.9404 12.0131 54.9404 11.6895C54.9404 11.3658 54.7921 11.0484 54.5341 10.8195C54.2762 10.5906 53.9198 10.459 53.5537 10.459Z" fill="#B5913D"/>
<path d="M41.4893 13.043H13.4775C12.7107 13.043 12.0908 13.5942 12.0908 14.2734C12.0908 14.9527 12.7107 15.5039 13.4775 15.5039H41.4893C42.2547 15.5039 42.876 14.9527 42.876 14.2734C42.876 13.5942 42.2547 13.043 41.4893 13.043Z" fill="#B5913D"/>
<path d="M41.4893 19.9336H13.4775C12.7107 19.9336 12.0908 20.4848 12.0908 21.1641C12.0908 21.8433 12.7107 22.3945 13.4775 22.3945H41.4893C42.2547 22.3945 42.876 21.8433 42.876 21.1641C42.876 20.4848 42.2547 19.9336 41.4893 19.9336Z" fill="#B5913D"/>
<path d="M41.4888 26.8242H31.1924C30.4255 26.8242 29.8057 27.3755 29.8057 28.0547C29.8057 28.7339 30.4255 29.2852 31.1924 29.2852H41.4888C42.2542 29.2852 42.8755 28.7339 42.8755 28.0547C42.8755 27.3755 42.2542 26.8242 41.4888 26.8242Z" fill="#B5913D"/>
<path d="M42.876 34.9453C42.876 34.2661 42.2547 33.7148 41.4893 33.7148H13.4775C12.7107 33.7148 12.0908 34.2661 12.0908 34.9453C12.0908 35.6245 12.7107 36.1758 13.4775 36.1758H41.4893C42.2547 36.1758 42.876 35.6245 42.876 34.9453Z" fill="#B5913D"/>
<path d="M36.9131 41.8359C36.9131 41.1567 36.2918 40.6055 35.5264 40.6055H26.8594C26.0925 40.6055 25.4727 41.1567 25.4727 41.8359C25.4727 42.5152 26.0925 43.0664 26.8594 43.0664H35.5264C36.2918 43.0664 36.9131 42.5152 36.9131 41.8359Z" fill="#B5913D"/>
<path d="M13.4775 49.957H25.6807C26.4461 49.957 27.0674 49.4058 27.0674 48.7266C27.0674 48.0473 26.4461 47.4961 25.6807 47.4961H13.4775C12.7107 47.4961 12.0908 48.0473 12.0908 48.7266C12.0908 49.4058 12.7107 49.957 13.4775 49.957V49.957Z" fill="#B5913D"/>
<path d="M13.4775 29.2852H22.7214C23.4883 29.2852 24.1081 28.7339 24.1081 28.0547C24.1081 27.3755 23.4883 26.8242 22.7214 26.8242H13.4775C12.7107 26.8242 12.0908 27.3755 12.0908 28.0547C12.0908 28.7339 12.7107 29.2852 13.4775 29.2852V29.2852Z" fill="#B5913D"/>
<path d="M13.4775 43.0664H20.6191C21.3846 43.0664 22.0059 42.5152 22.0059 41.8359C22.0059 41.1567 21.3846 40.6055 20.6191 40.6055H13.4775C12.7107 40.6055 12.0908 41.1567 12.0908 41.8359C12.0908 42.5152 12.7107 43.0664 13.4775 43.0664V43.0664Z" fill="#B5913D"/>
</g>
<defs>
<clipPath id="clip0">
<rect width="71" height="63" fill="white"/>
</clipPath>
</defs>
</svg>
