<svg width="73" height="60" viewBox="0 0 73 60" fill="none" xmlns="http://www.w3.org/2000/svg">
<g clip-path="url(#clip0)">
<path d="M52.8574 60C42.1054 60 33.3574 52.71 33.3574 43.75C33.3574 34.79 42.1054 27.5 52.8574 27.5C63.6094 27.5 72.3574 34.79 72.3574 43.75C72.3574 52.71 63.6094 60 52.8574 60ZM52.8574 30C43.7584 30 36.3574 36.1675 36.3574 43.75C36.3574 51.3325 43.7584 57.5 52.8574 57.5C61.9564 57.5 69.3574 51.3325 69.3574 43.75C69.3574 36.1675 61.9564 30 52.8574 30Z" fill="#B5913D"/>
<path d="M52.8574 50C52.0294 50 51.3574 49.44 51.3574 48.75V48.0925C51.3574 45.6925 52.8724 43.39 55.5154 41.7775C56.6854 41.0625 57.3574 39.9575 57.3574 38.75C57.3574 36.6825 55.3384 35 52.8574 35C50.3764 35 48.3574 36.6825 48.3574 38.75C48.3574 39.44 47.6854 40 46.8574 40C46.0294 40 45.3574 39.44 45.3574 38.75C45.3574 35.305 48.7234 32.5 52.8574 32.5C56.9914 32.5 60.3574 35.305 60.3574 38.75C60.3574 40.7325 59.2114 42.6175 57.2884 43.795C56.1934 44.4625 54.3574 45.9075 54.3574 48.0925V48.75C54.3574 49.44 53.6854 50 52.8574 50Z" fill="#B5913D"/>
<path d="M52.8574 55C53.6858 55 54.3574 54.4404 54.3574 53.75C54.3574 53.0596 53.6858 52.5 52.8574 52.5C52.029 52.5 51.3574 53.0596 51.3574 53.75C51.3574 54.4404 52.029 55 52.8574 55Z" fill="#B5913D"/>
<path d="M26.8744 38.8744C26.6524 38.8744 26.4274 38.8319 26.2114 38.7469C22.5274 37.2344 18.5524 36.6644 14.4094 37.0419C13.1134 37.1694 11.8114 36.8294 10.8424 36.1094C9.90042 35.4094 9.35742 34.4044 9.35742 33.3494V3.97439C9.35742 2.10439 11.0344 0.496887 13.2574 0.236887C20.4244 -0.645613 27.1834 1.01439 33.3574 5.19189C39.5314 1.01689 46.2844 -0.650613 53.4664 0.239387C55.6804 0.496887 57.3574 2.10439 57.3574 3.97439V21.2494C57.3574 21.9394 56.6854 22.4994 55.8574 22.4994C55.0294 22.4994 54.3574 21.9394 54.3574 21.2494V3.97439C54.3574 3.34439 53.7904 2.79939 53.0374 2.71189C46.2874 1.87439 40.1704 3.53189 34.3444 7.76689C33.7804 8.17689 32.9374 8.17689 32.3734 7.76689C26.5474 3.52939 20.4424 1.87439 13.6864 2.70939C12.9244 2.79939 12.3574 3.34189 12.3574 3.97439V33.3494C12.3574 33.6969 12.5284 34.0144 12.8374 34.2419C13.1674 34.4869 13.6084 34.6019 14.0734 34.5569C18.8014 34.1194 23.3314 34.7744 27.5404 36.5019C28.2844 36.8069 28.5874 37.5569 28.2244 38.1769C27.9604 38.6169 27.4294 38.8744 26.8744 38.8744V38.8744Z" fill="#B5913D"/>
<path d="M64.8574 25C64.0294 25 63.3574 24.44 63.3574 23.75V8.75C63.3574 8.06 62.6854 7.5 61.8574 7.5H55.8574C55.0294 7.5 54.3574 6.94 54.3574 6.25C54.3574 5.56 55.0294 5 55.8574 5H61.8574C64.3384 5 66.3574 6.6825 66.3574 8.75V23.75C66.3574 24.44 65.6854 25 64.8574 25Z" fill="#B5913D"/>
<path d="M25.8574 42.5H4.85742C2.37642 42.5 0.357422 40.8175 0.357422 38.75V8.75C0.357422 6.72 2.36442 5.0375 4.83042 5H10.8574C11.6854 5 12.3574 5.56 12.3574 6.25C12.3574 6.94 11.6854 7.5 10.8574 7.5H4.85742C4.04442 7.5125 3.35742 8.0725 3.35742 8.75V38.75C3.35742 39.44 4.02942 40 4.85742 40H25.8574C26.6854 40 27.3574 40.56 27.3574 41.25C27.3574 41.94 26.6854 42.5 25.8574 42.5Z" fill="#B5913D"/>
<path d="M33.3574 30C32.5294 30 31.8574 29.44 31.8574 28.75V6.25C31.8574 5.56 32.5294 5 33.3574 5C34.1854 5 34.8574 5.56 34.8574 6.25V28.75C34.8574 29.44 34.1854 30 33.3574 30Z" fill="#B5913D"/>
</g>
<defs>
<clipPath id="clip0">
<rect width="72" height="60" fill="white" transform="translate(0.357422)"/>
</clipPath>
</defs>
</svg>
