<svg width="79" height="67" viewBox="0 0 79 67" fill="none" xmlns="http://www.w3.org/2000/svg">
<g clip-path="url(#clip0)">
<path d="M42.7804 14.3741C44.3526 13.741 45.4442 12.3684 45.4442 10.781V3.96556C45.4442 1.77903 43.3732 0 40.8275 0H22.7331C22.1019 0 21.5905 0.439426 21.5905 0.981445C21.5905 1.52346 22.1019 1.96289 22.7331 1.96289H40.8275C42.113 1.96289 43.159 2.86124 43.159 3.96556V10.781C43.159 11.8853 42.1132 12.7838 40.8275 12.7838H15.0371C13.7516 12.7838 12.7056 11.8854 12.7056 10.781V3.96556C12.7058 2.86137 13.7516 1.96289 15.0371 1.96289H17.4175C18.0486 1.96289 18.5601 1.52346 18.5601 0.981445C18.5601 0.439426 18.0486 0 17.4175 0H15.0371C12.4914 0 10.4205 1.77903 10.4205 3.96556V10.781C10.4205 12.3684 11.512 13.741 13.0842 14.3741L7.52214 20.7871C6.71945 21.7127 6.27734 22.8581 6.27734 24.0123V33.8692C6.27734 34.4112 6.78876 34.8506 7.41992 34.8506C8.05108 34.8506 8.5625 34.4112 8.5625 33.8692V29.3696H47.3021V57.0795H41.2619C40.6307 57.0795 40.1193 57.519 40.1193 58.061C40.1193 58.603 40.6307 59.0424 41.2619 59.0424H47.3021V59.6076C47.3021 62.6006 44.4675 65.0355 40.9831 65.0355H14.8816C11.3973 65.0355 8.5625 62.6006 8.5625 59.6076V59.0424H35.9309C36.5621 59.0424 37.0735 58.603 37.0735 58.061C37.0735 57.519 36.5621 57.0795 35.9309 57.0795H8.5625V38.5161C8.5625 37.9741 8.05108 37.5347 7.41992 37.5347C6.78876 37.5347 6.27734 37.9741 6.27734 38.5161V59.6077C6.27734 63.6831 10.1371 66.9987 14.8816 66.9987H40.9832C45.7277 66.9987 49.5874 63.6832 49.5874 59.6077V24.0124C49.5874 22.8583 49.1453 21.7128 48.3426 20.7873L42.7804 14.3741ZM8.5625 27.4067V24.0123C8.5625 23.2778 8.84388 22.5489 9.35469 21.9598L15.6105 14.7465H40.254L46.5098 21.9598C47.0208 22.5489 47.302 23.2777 47.302 24.0123V27.4067H8.5625Z" fill="#B5913D"/>
<path d="M29.0752 9.86135V4.88477C29.0752 4.34275 28.5638 3.90332 27.9326 3.90332C27.3015 3.90332 26.79 4.34275 26.79 4.88477V9.86135C26.79 10.4034 27.3015 10.8428 27.9326 10.8428C28.5638 10.8428 29.0752 10.4035 29.0752 9.86135Z" fill="#B5913D"/>
<path d="M14.9033 4.88477V9.86135C14.9033 10.4034 15.4147 10.8428 16.0459 10.8428C16.6771 10.8428 17.1885 10.4034 17.1885 9.86135V4.88477C17.1885 4.34275 16.6771 3.90332 16.0459 3.90332C15.4147 3.90332 14.9033 4.34275 14.9033 4.88477Z" fill="#B5913D"/>
<path d="M21.9893 10.8429C22.6204 10.8429 23.1318 10.4035 23.1318 9.86148V4.88477C23.1318 4.34275 22.6204 3.90332 21.9893 3.90332C21.3581 3.90332 20.8467 4.34275 20.8467 4.88477V9.86135C20.8467 10.4035 21.3581 10.8429 21.9893 10.8429V10.8429Z" fill="#B5913D"/>
<path d="M34.9951 9.86135V4.88477C34.9951 4.34275 34.4837 3.90332 33.8525 3.90332C33.2214 3.90332 32.71 4.34275 32.71 4.88477V9.86135C32.71 10.4034 33.2214 10.8428 33.8525 10.8428C34.4837 10.8428 34.9951 10.4035 34.9951 9.86135Z" fill="#B5913D"/>
<path d="M40.9385 9.86135V4.88477C40.9385 4.34275 40.4271 3.90332 39.7959 3.90332C39.1647 3.90332 38.6533 4.34275 38.6533 4.88477V9.86135C38.6533 10.4034 39.1647 10.8428 39.7959 10.8428C40.4271 10.8428 40.9385 10.4035 40.9385 9.86135Z" fill="#B5913D"/>
<path d="M56.5786 12.7837C53.7066 12.7837 50.8929 13.4506 48.4413 14.7122C47.9 14.9906 47.724 15.5935 48.0484 16.0584C48.3726 16.5234 49.0743 16.6745 49.6157 16.3961C51.7125 15.317 54.1202 14.7467 56.5786 14.7467C64.0623 14.7467 70.1509 19.9766 70.1509 26.4052V38.9104H53.777C53.1458 38.9104 52.6344 39.3498 52.6344 39.8919C52.6344 40.4339 53.1458 40.8733 53.777 40.8733H70.1507V53.3785C70.1507 59.8069 64.0621 65.037 56.5784 65.037C55.2309 65.037 53.9007 64.8678 52.6243 64.5339C52.0213 64.3759 51.3824 64.6684 51.1985 65.1868C51.0147 65.7053 51.355 66.2537 51.9587 66.4117C53.4509 66.802 55.0053 66.9999 56.5784 66.9999C65.3223 66.9999 72.4359 60.8894 72.4359 53.3785V26.4051C72.436 18.8942 65.3223 12.7837 56.5786 12.7837V12.7837Z" fill="#B5913D"/>
<path d="M30.217 35.7554H25.6466C25.0155 35.7554 24.5041 36.1948 24.5041 36.7368V40.2804H20.3789C19.7477 40.2804 19.2363 40.7198 19.2363 41.2618V45.1877C19.2363 45.7297 19.7477 46.1692 20.3789 46.1692H24.5041V49.7127C24.5041 50.2547 25.0155 50.6941 25.6466 50.6941H30.217C30.8481 50.6941 31.3595 50.2547 31.3595 49.7127V46.1692H35.4847C36.1159 46.1692 36.6273 45.7297 36.6273 45.1877V41.2618C36.6273 40.7198 36.1159 40.2804 35.4847 40.2804H31.3595V36.7368C31.3595 36.1948 30.848 35.7554 30.217 35.7554ZM34.3421 42.2432V44.2061H30.217C29.5858 44.2061 29.0744 44.6456 29.0744 45.1876V48.7311H26.7892V45.1876C26.7892 44.6456 26.2778 44.2061 25.6466 44.2061H21.5215V42.2432H25.6466C26.2778 42.2432 26.7892 41.8038 26.7892 41.2618V37.7183H29.0744V41.2618C29.0744 41.8038 29.5858 42.2432 30.217 42.2432H34.3421Z" fill="#B5913D"/>
</g>
<defs>
<clipPath id="clip0">
<rect width="78" height="67" fill="white" transform="translate(0.357422)"/>
</clipPath>
</defs>
</svg>
