<svg width="73" height="64" viewBox="0 0 73 64" fill="none" xmlns="http://www.w3.org/2000/svg">
<g clip-path="url(#clip0)">
<path d="M47.1816 14.6841H58.6285C59.2195 14.6841 59.6979 14.2642 59.6979 13.7466C59.6979 13.2285 59.2195 12.8091 58.6285 12.8091H47.1816C46.5907 12.8091 46.1123 13.2285 46.1123 13.7466C46.1123 14.2642 46.5907 14.6841 47.1816 14.6841V14.6841Z" fill="#B5913D"/>
<path d="M47.1816 11.1812H58.6285C59.2195 11.1812 59.6979 10.7612 59.6979 10.2437C59.6979 9.72607 59.2195 9.30615 58.6285 9.30615H47.1816C46.5907 9.30615 46.1123 9.72607 46.1123 10.2437C46.1123 10.7612 46.5907 11.1812 47.1816 11.1812V11.1812Z" fill="#B5913D"/>
<path d="M47.1816 7.67822H58.6285C59.2195 7.67822 59.6979 7.2583 59.6979 6.74072C59.6979 6.22314 59.2195 5.80322 58.6285 5.80322H47.1816C46.5907 5.80322 46.1123 6.22314 46.1123 6.74072C46.1123 7.2583 46.5907 7.67822 47.1816 7.67822V7.67822Z" fill="#B5913D"/>
<path d="M67.8215 3.37451H64.6815C64.3935 2.37109 63.3593 1.625 62.1267 1.625H43.9686C42.7361 1.625 41.7019 2.37109 41.4139 3.37451H5.17848C2.32302 3.37451 0 5.41113 0 7.91455V45.1636C0 47.667 2.32302 49.7036 5.17848 49.7036H28.7947V52.4673C28.7947 53.5571 28.1731 54.5859 27.1717 55.1523L24.265 56.7969H22.3608C20.9852 56.7969 19.8657 57.7783 19.8657 58.9844V60.3843C19.8657 61.5903 20.9852 62.5718 22.3608 62.5718H34.0049C34.5952 62.5718 35.0742 62.1518 35.0742 61.6338C35.0742 61.1162 34.5952 60.6963 34.0049 60.6963H22.3608C22.1648 60.6963 22.0049 60.5561 22.0049 60.3843V58.9844C22.0049 58.8125 22.1648 58.6724 22.3608 58.6724H50.6392C50.8352 58.6724 50.9951 58.8125 50.9951 58.9844V60.3843C50.9951 60.5561 50.8352 60.6963 50.6392 60.6963H38.9951C38.4042 60.6963 37.9258 61.1162 37.9258 61.6338C37.9258 62.1518 38.4042 62.5718 38.9951 62.5718H50.6392C52.0148 62.5718 53.1337 61.5903 53.1337 60.3843V58.9844C53.1337 57.7783 52.0148 56.7969 50.6392 56.7969H48.735L45.8283 55.1523C44.8275 54.5854 44.2053 53.5566 44.2053 52.4673V49.7036H67.8215C70.677 49.7036 73 47.667 73 45.1636V30.9751C73 30.457 72.5216 30.0371 71.9307 30.0371C71.3397 30.0371 70.8613 30.457 70.8613 30.9751V45.1636C70.8613 46.6333 69.4974 47.8286 67.8215 47.8286C66.2092 47.8286 31.458 47.8286 29.864 47.8286H5.17848C3.50263 47.8286 2.13867 46.6333 2.13867 45.1636V7.91455C2.13867 6.44531 3.50263 5.24951 5.17848 5.24951H41.3321V7.27393H6.14033C5.20689 7.27393 4.44777 7.93994 4.44777 8.7583V44.3481C4.44777 45.1509 5.19296 45.8042 6.10858 45.8042H66.8914C67.807 45.8042 68.5522 45.1509 68.5522 44.3481V8.72998C68.5522 7.92725 67.807 7.27393 66.8914 7.27393H64.7633V5.24951H67.8215C69.4974 5.24951 70.8613 6.44531 70.8613 7.91455V26.5996C70.8613 27.1177 71.3397 27.5371 71.9307 27.5371C72.521 27.5371 73 27.1177 73 26.5996V7.91455C73 5.41113 70.677 3.37451 67.8215 3.37451V3.37451ZM42.0661 49.7036V52.4673C42.0661 54.1357 42.9249 55.7397 44.7913 56.7974H28.2087C30.0868 55.7334 30.9333 54.1216 30.9333 52.4673V49.7036H42.0661ZM43.4707 3.93652C43.4707 3.70019 43.6991 3.5 43.9686 3.5H62.1267C62.3969 3.5 62.6247 3.70019 62.6247 3.93652V16.4111C62.6247 16.6475 62.3963 16.8477 62.1267 16.8477H61.6934C61.0173 16.8477 60.4492 17.2725 60.3423 17.8579C60.0354 19.5342 58.5289 20.8682 56.6531 21.1816C57.4952 20.3643 58.07 19.3462 58.2916 18.2627C58.442 17.5239 57.7971 16.8477 56.9444 16.8477C55.9006 16.8477 45.6233 16.8477 43.9686 16.8477C43.6985 16.8477 43.4707 16.6475 43.4707 16.4111C43.4707 14.998 43.4707 5.35352 43.4707 3.93652ZM42.0132 34.9858L40.1235 38.3057C40.0929 38.2866 39.576 37.9648 38.0433 37.0102L40.4153 34.4434L42.0132 34.9858ZM37.2647 39.4253H35.7303L35.4212 39.0176L36.4978 38.3477L37.5738 39.0176L37.2647 39.4253ZM32.8715 38.3057L30.9818 34.9858L32.5763 34.4443L34.9483 37.0117C34.7206 37.1538 33.1049 38.1606 32.8715 38.3057V38.3057ZM39.0057 32.2187V32.9902L36.4978 35.7041L33.9848 32.9849V32.2534C34.8108 32.4932 35.6974 32.6006 36.5106 32.6006C37.3254 32.6006 38.1909 32.477 39.0057 32.2187ZM36.5106 30.7256C33.3198 30.7256 31.1038 28.5771 31.1038 26.145V22.1069C34.0622 22.1953 37.3193 21.4736 40.1313 19.9517C40.4437 20.2451 40.7049 20.4893 40.9227 20.6934C41.3176 21.0615 41.591 21.3179 41.7347 21.4624V26.145C41.7347 28.6792 39.3766 30.7256 36.5106 30.7256ZM28.9216 21.1504V19.8843C28.9216 16.2593 32.285 13.311 36.4192 13.311C38.2393 13.311 39.9675 13.8794 41.3321 14.9204V16.4111C41.3321 17.6299 42.4298 18.6406 43.7977 18.7178C43.8767 19.103 43.9168 19.4932 43.9168 19.8843V21.1191C43.9001 21.1162 43.8834 21.1138 43.8667 21.1113C43.8311 20.7109 43.5359 20.4175 43.1934 20.0825C42.8598 19.7568 42.4198 19.356 41.4217 18.415H41.4212C40.872 17.8975 39.9826 17.8022 39.3076 18.189C36.8592 19.5913 33.8055 20.374 30.8732 20.2187C30.0528 20.1753 29.3917 20.4419 29.0826 21.123C29.072 21.1245 28.9244 21.1494 28.9216 21.1504V21.1504ZM28.9651 23.1128V25.2554C28.4583 25.0576 28.1464 24.627 28.1464 24.1548C28.1458 23.6997 28.4984 23.3203 28.9651 23.1128ZM43.874 23.0557C44.3735 23.2515 44.6927 23.6772 44.6927 24.1548C44.6927 24.5054 44.5195 24.8369 44.2176 25.0645C44.1134 25.1426 43.9982 25.2065 43.874 25.2554V23.0557ZM6.58644 9.14941H41.3321V12.6152C39.8589 11.8467 38.1725 11.4355 36.4192 11.4355C31.1054 11.4355 26.7824 15.2256 26.7824 19.8838V22.2871C26.2795 22.8218 26.0071 23.4687 26.0071 24.1543C26.0071 25.6728 27.2725 26.9936 29.072 27.2114C29.3772 28.7612 30.338 30.2446 31.8456 31.2612V32.6802L23.0681 35.6636C23.0615 35.666 23.0548 35.668 23.0481 35.6704C22.8777 35.7319 18.8827 37.2187 18.8827 41.3008V43.9287H6.58644V9.14941ZM21.0219 41.3008C21.0219 38.5317 23.6819 37.4731 23.8562 37.4067L28.9784 35.666L31.2207 39.6055C31.6351 40.334 32.7328 40.6919 33.6768 40.104L34.0316 40.5723L33.3839 43.9292H26.9829V42.5044C26.9829 41.9863 26.5045 41.5669 25.9136 41.5669C25.3232 41.5669 24.8442 41.9863 24.8442 42.5044V43.9292H21.0219V41.3008ZM35.5526 43.9292L36.0606 41.3003H36.935L37.4424 43.9292H35.5526ZM48.1558 43.9292V42.5044C48.1558 41.9863 47.6773 41.5669 47.0864 41.5669C46.4955 41.5669 46.0171 41.9863 46.0171 42.5044V43.9292H39.6111L38.9634 40.5723L39.3181 40.104C40.2432 40.6802 41.3499 40.3501 41.7743 39.6055L44.0165 35.666L49.1421 37.4062C49.3504 37.4863 51.9786 38.5488 51.9786 41.3008V43.9292H48.1558ZM66.4136 9.14941V43.9292H54.1173V41.3008C54.1173 37.2187 50.1218 35.7319 49.9519 35.6709C49.9447 35.668 49.938 35.666 49.9313 35.6636L41.1444 32.6802V31.1572C42.51 30.1846 43.4713 28.793 43.772 27.2075C45.6077 26.9766 46.8313 25.647 46.8313 24.1548C46.8313 23.4458 46.5534 22.7676 46.0555 22.2256V19.8843C46.0555 19.4951 46.0243 19.1074 45.9636 18.7227H55.9257C55.669 19.2788 55.2707 19.7847 54.7617 20.1934C53.4707 21.228 54.2783 23.2124 56.2309 23.1152C59.1204 22.9541 61.5865 21.144 62.3183 18.7163C63.6829 18.6299 64.7633 17.6289 64.7633 16.4111V9.14941H66.4136Z" fill="#B5913D"/>
</g>
<defs>
<clipPath id="clip0">
<rect width="73" height="64" fill="white"/>
</clipPath>
</defs>
</svg>
